<svg width="35" height="32" viewBox="0 0 35 32" fill="none" xmlns="http://www.w3.org/2000/svg">
<path d="M34.5209 19.8582V21.6619C34.5209 21.7654 34.4576 21.8575 34.3656 21.8977C33.8017 22.1394 31.8714 23.0255 31.0688 24.1416C29.0206 26.9924 27.4556 31.0688 23.9575 31.0688H9.36382C4.19141 31.0688 0 26.863 0 21.6734V21.5065C0 21.3684 0.112187 21.2562 0.25032 21.2562H8.38569C8.54678 21.2562 8.66475 21.4058 8.65038 21.564C8.59283 22.0934 8.69064 22.6342 8.9409 23.1261C9.42424 24.1071 10.4253 24.7198 11.507 24.7198H15.5344V21.5756H11.553C11.3488 21.5756 11.2279 21.3397 11.3459 21.1728C11.389 21.1066 11.4379 21.0376 11.4897 20.9599C11.8666 20.4249 12.4045 19.5935 12.9396 18.647C13.3049 18.0084 13.6588 17.3266 13.9436 16.642C14.0011 16.5183 14.0472 16.3917 14.0931 16.2679C14.1709 16.0494 14.2514 15.8451 14.3089 15.6409C14.3664 15.4683 14.4125 15.287 14.4585 15.1173C14.5937 14.5362 14.6513 13.9205 14.6513 13.2819C14.6513 13.0316 14.6398 12.7699 14.6167 12.5195C14.6052 12.2463 14.5707 11.973 14.5362 11.6997C14.5131 11.458 14.47 11.2193 14.424 10.969C14.3664 10.6037 14.2859 10.2412 14.1938 9.87585L14.1622 9.73778C14.0931 9.48752 14.0357 9.24871 13.9551 8.99845C13.7278 8.21308 13.466 7.44788 13.1899 6.73157C13.0892 6.44678 12.9741 6.1735 12.859 5.90022C12.6893 5.48881 12.5167 5.11485 12.3585 4.761C12.2779 4.5999 12.2089 4.45318 12.1399 4.3036C12.0622 4.13386 11.9816 3.96418 11.9011 3.80302C11.8436 3.67932 11.7774 3.56428 11.7314 3.44923L11.2394 2.54016C11.1704 2.41646 11.2855 2.26974 11.4206 2.30714L14.4988 3.14141H14.5074C14.5131 3.14141 14.5161 3.14428 14.5189 3.14428L14.9246 3.25646L15.3704 3.38302L15.5344 3.42907V1.59948C15.5344 0.716303 16.2421 0 17.1166 0C17.5539 0 17.9509 0.178328 18.2357 0.468906C18.5204 0.759484 18.6988 1.15646 18.6988 1.59948V4.31511L19.0267 4.40714C19.0527 4.41579 19.0786 4.4273 19.1016 4.44453C19.1821 4.50495 19.2972 4.59418 19.4439 4.70344C19.559 4.79553 19.6827 4.90772 19.8323 5.02276C20.1286 5.26157 20.4824 5.56939 20.8708 5.92318C20.9743 6.01241 21.075 6.10444 21.1671 6.19652C21.6676 6.66251 22.2286 7.20913 22.7637 7.81324C22.9133 7.98292 23.06 8.15553 23.2096 8.33678C23.3592 8.5209 23.5174 8.70215 23.6555 8.8834C23.8367 9.12501 24.0323 9.37527 24.202 9.6371C24.2826 9.7608 24.3746 9.88736 24.4523 10.0111C24.6709 10.3419 24.8637 10.6842 25.0478 11.0265C25.1255 11.1848 25.206 11.3574 25.275 11.5271C25.4793 11.9845 25.6404 12.4505 25.7439 12.9166C25.7756 13.0173 25.7986 13.1266 25.8101 13.2244V13.2474C25.8446 13.3855 25.8561 13.5322 25.8676 13.6818C25.9137 14.1593 25.8907 14.6368 25.7871 15.1173C25.7439 15.3215 25.6865 15.5142 25.6174 15.7185C25.5483 15.9141 25.4793 16.1184 25.3902 16.3111C25.2175 16.711 25.0133 17.1109 24.7716 17.4848C24.6939 17.6229 24.6019 17.7696 24.5098 17.9077C24.4092 18.0544 24.3056 18.1925 24.2135 18.3277C24.087 18.5003 23.9518 18.6815 23.8137 18.8426C23.69 19.0124 23.5634 19.1821 23.4253 19.3317C23.2326 19.5589 23.0485 19.7747 22.8557 19.9819C22.7407 20.1171 22.617 20.2551 22.4903 20.3788C22.3666 20.5169 22.2401 20.6406 22.125 20.7557C21.9323 20.9484 21.7712 21.098 21.636 21.2217L21.3195 21.5123C21.2735 21.5525 21.2131 21.5756 21.1498 21.5756H18.6988V24.7198H21.7827C22.4731 24.7198 23.129 24.4753 23.6583 24.0266C23.8396 23.8683 24.6307 23.1836 25.5656 22.1509C25.5972 22.1164 25.6375 22.0905 25.6835 22.079L34.2016 19.6165C34.3598 19.5704 34.5209 19.6913 34.5209 19.8582Z" fill="#10151A"/>
</svg>
