<svg width="237" height="89" viewBox="0 0 237 89" fill="none" xmlns="http://www.w3.org/2000/svg">
<g clip-path="url(#clip0_8758_23325)">
<path d="M56.7372 28.9794L55.4301 26.6841C55.3276 26.5042 55.1849 26.3504 55.0131 26.2347C54.8414 26.1191 54.6452 26.0447 54.44 26.0174C54.2348 25.99 54.026 26.0105 53.8299 26.0772C53.6339 26.1438 53.456 26.2549 53.3099 26.4017L50.3035 29.4055C50.0837 29.6264 49.947 29.9165 49.9165 30.2266C49.886 30.5367 49.9636 30.8479 50.1362 31.1074C51.2324 32.7825 52.1109 34.5904 52.7505 36.4875C53.9453 40.0338 54.279 43.8136 53.7239 47.5143C53.1688 51.2151 51.7409 54.7307 49.5582 57.7704C47.3755 60.8101 44.5007 63.2866 41.1714 64.9953C37.8421 66.7041 34.1539 67.5959 30.4117 67.5971C26.5593 67.6077 22.7641 66.6656 19.3639 64.8547L24.4486 59.7674C27.5994 60.9591 31.0352 61.1784 34.3119 60.3969C37.5886 59.6154 40.5556 57.869 42.8294 55.3836C45.1031 52.8981 46.5792 49.7878 47.0666 46.4546C47.5541 43.1215 47.0307 39.7187 45.5639 36.6862C45.4708 36.492 45.3324 36.323 45.1605 36.1933C44.9885 36.0637 44.788 35.9772 44.5757 35.9411C44.3634 35.9049 44.1455 35.9203 43.9404 35.9858C43.7352 36.0513 43.5488 36.1651 43.3967 36.3176L40.3537 39.3396C40.1915 39.5017 40.0734 39.7025 40.0107 39.9231C39.948 40.1436 39.9428 40.3766 39.9956 40.5997L40.257 41.6925C40.7068 43.6067 40.5881 45.6106 39.9153 47.4582C39.2425 49.3059 38.0449 50.917 36.4695 52.0937C34.8941 53.2704 33.0095 53.9617 31.0469 54.0826C29.0842 54.2035 27.129 53.7488 25.4211 52.7743L24.08 52.0057C23.8237 51.8581 23.5258 51.7993 23.2327 51.8386C22.9395 51.8778 22.6676 52.0128 22.4592 52.2227L10.0389 64.6404C9.90328 64.7759 9.79822 64.9389 9.73072 65.1184C9.66322 65.2978 9.63483 65.4897 9.64745 65.681C9.66008 65.8723 9.71342 66.0587 9.80391 66.2278C9.89441 66.3968 10.02 66.5446 10.1722 66.6612L12.0022 68.065C17.2795 72.1319 23.7596 74.3281 30.4222 74.3079C35.7265 74.3011 40.9363 72.9031 45.5314 70.2535C50.1266 67.6038 53.9464 63.7953 56.6095 59.2079C59.2726 54.6206 60.6859 49.415 60.7084 44.1107C60.7308 38.8064 59.3615 33.589 56.7372 28.9794Z" fill="white"/>
<path d="M48.835 19.9471C43.5583 15.8788 37.078 13.6816 30.415 13.7017C25.1081 13.7058 19.8952 15.1025 15.2972 17.7522C10.6991 20.402 6.87692 24.2119 4.21247 28.8015C1.54803 33.391 0.13464 38.5994 0.113521 43.9063C0.0924025 49.2131 1.46429 54.4326 4.09213 59.0432L5.39925 61.3359C5.50219 61.5156 5.64514 61.6692 5.817 61.7848C5.98886 61.9004 6.18503 61.9748 6.3903 62.0024C6.59557 62.03 6.80442 62.0099 7.00068 61.9437C7.19694 61.8776 7.37533 61.7671 7.52202 61.6209L10.5232 58.6197C10.7415 58.3985 10.8772 58.109 10.9077 57.7997C10.9381 57.4904 10.8615 57.18 10.6905 56.9205C9.59326 55.2459 8.71471 53.4378 8.07625 51.5403C6.8814 47.994 6.54773 44.2143 7.10283 40.5135C7.65793 36.8127 9.08584 33.2972 11.2685 30.2575C13.4513 27.2178 16.3261 24.7412 19.6554 23.0325C22.9847 21.3238 26.6728 20.4319 30.415 20.4308C34.2673 20.422 38.0618 21.3669 41.4602 23.1809L36.3729 28.2657C33.8244 27.2998 31.0796 26.9671 28.3742 27.2963C25.6688 27.6254 23.0838 28.6065 20.8413 30.1553C18.5988 31.704 16.7658 33.7741 15.5 36.1876C14.2341 38.6012 13.5732 41.286 13.574 44.0113C13.574 44.291 13.6498 45.5668 13.6734 45.7864C13.8795 47.7172 14.4163 49.5981 15.2602 51.3469C15.3536 51.5411 15.4923 51.7101 15.6645 51.8397C15.8366 51.9694 16.0374 52.0558 16.2499 52.0919C16.4623 52.128 16.6804 52.1127 16.8857 52.0472C17.091 51.9817 17.2777 51.868 17.43 51.7155L20.473 48.6699C20.6351 48.5082 20.7533 48.3079 20.8164 48.0879C20.8795 47.8679 20.8855 47.6354 20.8338 47.4124L20.5724 46.3171C20.1219 44.4028 20.2403 42.3987 20.913 40.5508C21.5857 38.7029 22.7834 37.0917 24.3591 35.915C25.9347 34.7383 27.8197 34.0474 29.7826 33.9271C31.7454 33.8068 33.7007 34.2624 35.4082 35.2379L36.7493 36.0065C37.006 36.1528 37.3036 36.2108 37.5964 36.1716C37.8892 36.1324 38.161 35.9981 38.3702 35.7895L50.7879 23.3718C50.9236 23.2361 51.0289 23.0731 51.0967 22.8935C51.1644 22.714 51.193 22.522 51.1807 22.3305C51.1683 22.139 51.1152 21.9523 51.0249 21.7829C50.9346 21.6135 50.8093 21.4654 50.6572 21.3484L48.835 19.9471Z" fill="white"/>
<path d="M99.885 52.3695C99.6585 52.1855 99.3739 52.0882 99.0822 52.0949C98.7905 52.1016 98.5107 52.2119 98.2929 52.4061C96.3453 53.9171 94.0866 55.3157 90.7848 55.3157C84.7406 55.3157 79.8232 50.2258 79.8232 43.9647C79.8232 37.7035 84.7223 32.5691 90.7403 32.5691C93.3546 32.5691 96.178 33.6697 98.2537 35.4919C98.3707 35.6276 98.5161 35.7359 98.6797 35.8091C98.8432 35.8823 99.0209 35.9186 99.2 35.9154C99.3553 35.903 99.506 35.8569 99.6414 35.7801C99.7769 35.7033 99.894 35.5978 99.9843 35.471L101.95 33.4475C102.075 33.3264 102.174 33.1808 102.24 33.0197C102.306 32.8587 102.338 32.6857 102.335 32.5116C102.327 32.3348 102.283 32.1613 102.206 32.0021C102.129 31.8429 102.019 31.7013 101.885 31.5862C98.4524 28.5955 95.0042 27.2622 90.6933 27.2622C81.4911 27.2622 74.0039 34.7965 74.0039 44.0562C74.0074 48.4826 75.7664 52.7269 78.8951 55.8581C82.0239 58.9893 86.2668 60.7517 90.6933 60.7586C92.7727 60.7832 94.8364 60.3963 96.7657 59.6201C98.6949 58.8439 100.452 57.6938 101.935 56.2359C102.065 56.1032 102.167 55.9458 102.235 55.7729C102.303 55.6001 102.336 55.4153 102.332 55.2295C102.328 55.0815 102.295 54.9359 102.234 54.8011C102.173 54.6664 102.085 54.5453 101.976 54.4452L99.885 52.3695Z" fill="white"/>
<path d="M114.193 27.717H111.216C110.884 27.7282 110.568 27.8655 110.334 28.1011C110.099 28.3366 109.963 28.6527 109.953 28.985V59.0488C109.962 59.3816 110.098 59.6983 110.333 59.9344C110.567 60.1705 110.883 60.3082 111.216 60.3194H114.193C114.526 60.3082 114.842 60.1705 115.077 59.9344C115.311 59.6983 115.447 59.3816 115.456 59.0488V28.985C115.446 28.6527 115.31 28.3366 115.076 28.1011C114.841 27.8655 114.526 27.7282 114.193 27.717Z" fill="white"/>
<path d="M149.43 37.8368C149.43 32.258 144.837 27.717 139.19 27.717H126.911C126.576 27.7184 126.255 27.8526 126.018 28.0902C125.781 28.3279 125.648 28.6496 125.648 28.985V59.0488C125.648 59.3847 125.78 59.707 126.017 59.9452C126.254 60.1834 126.575 60.318 126.911 60.3194H129.844C130.177 60.3082 130.493 60.1705 130.727 59.9344C130.962 59.6983 131.098 59.3816 131.107 59.0488V47.8677H137.261L143.156 59.671C143.263 59.8644 143.421 60.0254 143.612 60.1372C143.802 60.249 144.02 60.3074 144.241 60.3063H147.76C147.982 60.3137 148.202 60.2622 148.398 60.1571C148.594 60.0519 148.759 59.8969 148.876 59.7076C148.987 59.5078 149.046 59.2828 149.046 59.0541C149.046 58.8253 148.987 58.6004 148.876 58.4005L142.895 47.2533C146.936 45.4573 149.43 41.8863 149.43 37.8368ZM143.927 37.9283C143.927 40.7595 141.593 43.1568 138.829 43.1568H131.198V32.9325H138.819C141.588 32.9325 143.917 35.2199 143.917 37.9283H143.927Z" fill="white"/>
<path d="M181.479 52.3695C181.252 52.1855 180.968 52.0882 180.676 52.0949C180.384 52.1016 180.104 52.2119 179.887 52.4061C177.939 53.9171 175.68 55.3157 172.378 55.3157C166.334 55.3157 161.417 50.2258 161.417 43.9647C161.417 37.7035 166.313 32.5691 172.331 32.5691C174.946 32.5691 177.769 33.6697 179.847 35.4919C179.965 35.6289 180.112 35.738 180.277 35.8113C180.442 35.8845 180.621 35.9201 180.802 35.9154C180.957 35.903 181.107 35.8569 181.243 35.7801C181.378 35.7033 181.495 35.5978 181.586 35.471L183.552 33.4475C183.677 33.3263 183.775 33.1806 183.841 33.0195C183.906 32.8584 183.938 32.6855 183.933 32.5116C183.927 32.3348 183.884 32.1612 183.807 32.0019C183.73 31.8426 183.621 31.701 183.486 31.5862C180.062 28.5955 176.614 27.2622 172.303 27.2622C163.1 27.2622 155.613 34.7965 155.613 44.0562C155.617 48.4826 157.376 52.7269 160.505 55.8581C163.633 58.9893 167.876 60.7517 172.303 60.7586C174.382 60.7829 176.446 60.3958 178.375 59.6197C180.304 58.8435 182.061 57.6935 183.544 56.2359C183.674 56.1028 183.777 55.945 183.845 55.7716C183.913 55.5983 183.946 55.4131 183.941 55.2268C183.938 55.0789 183.905 54.9332 183.844 54.7984C183.783 54.6636 183.695 54.5426 183.586 54.4426L181.479 52.3695Z" fill="white"/>
<path d="M208.866 55.2712H197.05V28.985C197.04 28.6527 196.904 28.3366 196.67 28.1011C196.435 27.8655 196.119 27.7282 195.787 27.717H192.81C192.474 27.7184 192.153 27.8526 191.916 28.0902C191.68 28.3279 191.547 28.6496 191.547 28.985V59.0488C191.546 59.3847 191.679 59.707 191.915 59.9452C192.152 60.1834 192.474 60.318 192.81 60.3194H208.866C209.033 60.319 209.198 60.2859 209.351 60.2219C209.505 60.1578 209.645 60.0641 209.762 59.9462C209.88 59.8282 209.973 59.6882 210.036 59.5342C210.099 59.3803 210.132 59.2153 210.132 59.0488V56.5522C210.133 56.3848 210.102 56.2188 210.039 56.0636C209.976 55.9084 209.883 55.7672 209.766 55.6481C209.648 55.5291 209.508 55.4344 209.354 55.3697C209.199 55.3051 209.034 55.2716 208.866 55.2712Z" fill="white"/>
<path d="M235.614 32.8046C235.949 32.8032 236.27 32.669 236.507 32.4314C236.743 32.1938 236.876 31.872 236.876 31.5367V28.993C236.876 28.6576 236.743 28.3359 236.507 28.0983C236.27 27.8607 235.949 27.7265 235.614 27.7251H217.575C217.24 27.7265 216.919 27.8607 216.682 28.0983C216.445 28.3359 216.312 28.6576 216.313 28.993V59.0569C216.312 59.3927 216.444 59.7151 216.681 59.9533C216.918 60.1915 217.239 60.326 217.575 60.3274H235.614C235.949 60.326 236.271 60.1915 236.508 59.9533C236.744 59.7151 236.877 59.3927 236.876 59.0569V56.5603C236.876 56.2249 236.743 55.9032 236.507 55.6656C236.27 55.4279 235.949 55.2938 235.614 55.2924H221.758V46.3229H233.394C233.73 46.3222 234.052 46.1883 234.289 45.9506C234.526 45.7129 234.659 45.3908 234.659 45.055V42.5139C234.65 42.1807 234.514 41.8637 234.279 41.6275C234.044 41.3913 233.727 41.2539 233.394 41.2434H221.766V32.8046H235.614Z" fill="white"/>
</g>
<defs>
<clipPath id="clip0_8758_23325">
<rect width="236.636" height="88.0909" fill="white"/>
</clipPath>
</defs>
</svg>
