<svg width="120" height="40" viewBox="0 0 120 40" fill="none" xmlns="http://www.w3.org/2000/svg">
<path fill-rule="evenodd" clip-rule="evenodd" d="M16.5643 0.0904791C12.9396 0.535974 8.95039 2.39895 5.54843 5.27442C4.85994 5.84141 3.42221 7.23864 3.42221 7.31964C3.42221 7.36014 4.1107 8.08913 4.96119 8.93962L6.50017 10.4989L5.85218 11.2278C3.46271 13.9211 1.84273 16.6548 0.870738 19.5505C0.263246 21.373 0 22.8714 0 24.5522C0 26.0709 0.202497 27.3061 0.668241 28.5009L0.850489 28.9869L5.36618 33.5026C9.13264 37.269 9.98313 38.079 10.4489 38.3828C11.4209 39.0307 12.5548 39.4762 13.8103 39.7395C14.6406 39.9217 16.5643 39.9825 17.4755 39.861C21.08 39.4155 24.8059 37.7145 28.0662 35.001C28.9166 34.2923 30.3544 32.9356 30.3544 32.8546C30.3544 32.8141 29.6456 32.0851 28.7951 31.2143L27.2359 29.6349L27.7219 29.1286C28.9166 27.8731 30.3746 25.8684 31.2251 24.2889C32.4401 22.0817 33.2298 19.6922 33.4931 17.5053C33.5943 16.5535 33.5336 14.5286 33.3716 13.7591C33.0881 12.4631 32.6426 11.4101 31.9744 10.3976C31.6301 9.87111 30.9416 9.16237 27.1347 5.33517L22.6797 0.880221L22.214 0.697972C21.5862 0.434725 20.2902 0.130979 19.5005 0.0499802C18.7108 -0.0310187 17.4755 -0.0107696 16.5643 0.0904791ZM20.3915 1.28522C20.7155 1.36621 21.242 1.48771 21.5255 1.58896C22.052 1.77121 22.0722 1.77121 22.9025 2.60145C23.6315 3.33044 23.7327 3.43169 23.5505 3.41144C22.5785 3.22919 21.0192 3.18869 19.8043 3.35069C15.9163 3.83668 11.9069 5.80091 8.2214 9.04087C7.8569 9.36486 7.53291 9.64836 7.47216 9.68886C7.41141 9.72936 7.08741 9.46611 6.13567 8.51437L4.88019 7.25889L5.69018 6.55015C9.07189 3.59369 12.7978 1.73071 16.4428 1.20422C17.4148 1.06247 19.5815 1.12322 20.3915 1.28522ZM25.6969 7.72463C27.4789 7.98788 29.0381 8.75737 30.1924 9.91161C31.3264 11.0456 32.0554 12.5036 32.3996 14.3261C32.5413 15.136 32.5413 16.9585 32.3996 17.9103C31.9339 20.8465 30.5771 23.8637 28.4711 26.6177C27.9852 27.2656 26.8309 28.6224 26.6487 28.7641C26.5474 28.8451 26.4259 28.7439 25.3729 27.6909C24.7249 27.0429 24.1984 26.4962 24.1984 26.4759C24.1984 26.4557 24.3807 26.2329 24.6034 25.9899C28.2686 21.94 29.9899 16.8775 28.7749 13.7388C28.2889 12.5238 27.2764 11.6126 25.9602 11.2076C25.2919 11.0051 24.1174 10.9038 23.2467 11.0051C21.9102 11.1266 20.27 11.6531 18.6905 12.4226C17.111 13.1921 15.6733 14.1641 14.2761 15.4195L13.6483 15.9663L12.4536 14.7715L11.2589 13.5768L11.7651 13.1111C14.8633 10.2154 18.974 8.14988 22.4975 7.68413C23.2062 7.62338 25.0287 7.62338 25.6969 7.72463ZM8.95039 14.7108C8.5049 15.217 7.9379 15.9258 7.6544 16.2903C4.29295 20.7655 2.75397 25.6254 3.38171 29.8171L3.42221 30.0804L2.59197 29.2704C1.80223 28.5009 1.76173 28.4401 1.59973 27.9541C0.02025 23.4182 2.00472 17.161 6.68242 11.9163L7.22916 11.3088L8.48464 12.5643L9.74013 13.8198L8.95039 14.7108ZM24.7654 12.1188L24.9274 12.1593L24.8869 13.0098C24.8464 14.0223 24.7047 14.8525 24.5022 15.5613C23.8542 17.6875 22.6595 19.8137 20.918 21.8185L20.2497 22.5879L18.974 21.3122L17.6983 20.0365L18.2855 19.3885C19.541 18.0115 20.6952 16.4118 21.404 15.055C21.7887 14.3261 22.295 13.0908 22.4367 12.5238C22.5177 12.1796 22.5177 12.1796 22.8215 12.1391C22.9835 12.1188 23.1657 12.0986 23.2265 12.0783C23.3885 12.0783 24.6237 12.0783 24.7654 12.1188ZM21.1407 13.0098C20.8572 13.7996 20.2295 15.0145 19.622 15.9258C18.9538 16.9383 18.488 17.5458 17.5565 18.5987L16.9085 19.348L15.6328 18.0723L14.3571 16.7965L14.7823 16.4118C16.0985 15.2373 17.6375 14.1843 19.055 13.4553C19.8245 13.0706 21.08 12.5643 21.2622 12.5441C21.2825 12.5441 21.242 12.7466 21.1407 13.0098ZM40.54 13.7793C40.4792 13.8401 40.459 15.5208 40.459 21.6767C40.459 29.1691 40.459 29.4931 40.5805 29.5944C40.6817 29.6956 41.0057 29.6956 43.7395 29.6956C45.3999 29.6956 47.2022 29.6551 47.7287 29.6349C49.8549 29.4931 51.4951 28.8046 52.7506 27.5491C53.7428 26.5569 54.3706 25.1799 54.6946 23.3574C54.8363 22.4665 54.8363 20.6035 54.6946 19.7327C54.1681 16.7965 52.4873 14.893 49.7941 14.1236C48.4779 13.7591 48.3766 13.7388 44.3672 13.7186C41.3905 13.7186 40.6007 13.7186 40.54 13.7793ZM114.269 14.0426C114.209 14.1033 114.188 14.6095 114.188 15.9055V17.6875H113.419C112.913 17.6875 112.629 17.7078 112.568 17.7685C112.467 17.8698 112.467 19.9757 112.568 20.0972C112.629 20.158 112.913 20.1782 113.419 20.1782H114.188L114.209 23.7827C114.229 27.3061 114.229 27.4074 114.371 27.8124C114.755 28.9261 115.545 29.5336 116.821 29.6956C117.692 29.7969 118.927 29.7564 119.777 29.5944L119.96 29.5539L119.939 28.0756L119.919 26.5974L119.109 26.5569C118.238 26.5164 118.097 26.4759 117.995 26.2937C117.955 26.2127 117.935 24.9977 117.935 23.1954V20.2187L118.967 20.1985L120 20.1782V18.943V17.7078L118.967 17.6875L117.935 17.6673V15.9258C117.935 14.8525 117.914 14.1438 117.874 14.0628C117.813 13.9413 117.712 13.9413 116.092 13.9413C114.816 13.9818 114.33 14.0021 114.269 14.0426ZM47.9919 17.4648C49.2271 17.7888 50.0371 18.6595 50.3611 19.9352C50.6041 20.9072 50.6041 22.5272 50.3409 23.5397C50.0776 24.5319 49.4701 25.3217 48.6601 25.7064C47.9514 26.0507 47.5262 26.1114 46.0682 26.1519L44.7519 26.1924V21.7375V17.2825L46.1694 17.323C47.2022 17.3433 47.7084 17.3838 47.9919 17.4648ZM60.3645 17.5458C58.3395 17.9103 56.7803 19.2467 56.0918 21.1907C55.1806 23.7422 55.6261 26.6581 57.165 28.2984C57.975 29.1489 58.7445 29.5944 59.919 29.8981C62.1667 30.4651 64.5765 29.8779 66.1762 28.3794C66.5609 28.0351 67.5532 26.7796 67.5532 26.6581C67.5532 26.5164 67.2697 26.3342 66.1154 25.7469C65.4067 25.3824 64.8194 25.0787 64.7992 25.0787C64.7789 25.0787 64.6574 25.2609 64.5359 25.4837C64.2525 26.0304 63.6652 26.6379 63.24 26.8606C61.9642 27.4884 60.4657 27.1239 59.8178 26.0304C59.6355 25.7064 59.4533 25.1394 59.4533 24.8357V24.6129H63.5032C66.5609 24.6129 67.5532 24.5927 67.6139 24.5319C67.7152 24.4307 67.7152 23.6207 67.5937 22.8107C67.2697 20.644 66.3584 19.0847 64.9004 18.214C64.4145 17.9305 63.483 17.6065 62.8755 17.5053C62.268 17.404 60.972 17.4243 60.3645 17.5458ZM73.6686 17.4648C73.1016 17.5458 72.6358 17.647 72.2713 17.7685C70.2261 18.4165 68.8694 20.0972 68.4442 22.4867C68.2822 23.3979 68.3429 24.8559 68.5657 25.7267C68.8694 26.9011 69.3149 27.6706 70.1249 28.4401C70.8336 29.1084 71.6639 29.5741 72.7776 29.8779C73.1016 29.9791 73.4256 29.9994 74.2558 29.9994C75.2076 29.9994 75.3493 29.9791 75.8758 29.8171C76.9288 29.4931 77.7388 29.0071 78.4678 28.2376C78.9538 27.7314 79.5005 26.9821 79.5005 26.8201C79.5005 26.7594 79.3993 26.6581 79.298 26.5772C78.8728 26.3139 76.9085 25.3419 76.8073 25.3419C76.7466 25.3419 76.6453 25.4837 76.5441 25.6862C76.301 26.2127 75.9771 26.5569 75.4708 26.7999C75.0861 26.9821 74.9646 27.0226 74.5393 27.0024C73.9723 27.0024 73.6078 26.8606 73.1421 26.4557C71.9271 25.3824 71.8461 22.4057 73.0003 21.049C73.7293 20.1985 75.0861 20.1985 75.9568 21.0287C76.0986 21.1705 76.3011 21.4337 76.4023 21.616C76.5036 21.7982 76.6251 21.9602 76.6858 21.9602C76.8275 22.0007 79.3183 20.563 79.3588 20.4212C79.379 20.2997 79.1158 19.8947 78.731 19.4087C78.1033 18.6392 76.868 17.89 75.7948 17.647C75.2481 17.5053 74.0736 17.4243 73.6686 17.4648ZM106.149 17.6065C105.481 17.728 104.873 17.971 104.387 18.3355L104.003 18.619L103.982 18.214L103.962 17.809L102.403 17.7888C101.026 17.7685 100.823 17.7888 100.722 17.89C100.601 17.9913 100.601 18.295 100.601 25.7874C100.601 31.7611 100.621 33.5836 100.682 33.6443C100.803 33.7658 104.205 33.7658 104.306 33.6443C104.367 33.5836 104.387 32.9761 104.387 31.3358V29.1084L105.015 29.4324C105.866 29.8576 106.392 29.9589 107.384 29.9184C108.539 29.8576 109.227 29.6349 109.976 29.0679C111.029 28.2781 111.718 27.0631 112.103 25.3824C112.305 24.4914 112.305 22.9322 112.103 21.9805C111.839 20.725 111.414 19.8745 110.645 19.0645C109.511 17.809 107.85 17.3028 106.149 17.6065ZM14.8228 18.8012C15.9163 19.8947 15.977 19.9757 15.8961 20.0972C15.8353 20.158 15.5721 20.4617 15.2886 20.7857C14.1546 22.0817 13.1016 23.6612 12.3928 25.1192C11.8866 26.1519 11.5829 27.0024 11.2791 28.1566C10.8944 29.6754 10.8944 31.3561 11.3196 32.5306C12.1094 34.758 14.1951 35.811 17.111 35.4668C19.9258 35.1225 23.1657 33.5026 25.9399 31.0523L26.5272 30.5259L27.7219 31.7206L28.9166 32.9153L28.4104 33.3811C25.8184 35.7908 22.3557 37.755 19.3588 38.484C18.1438 38.7877 17.2933 38.889 16.139 38.889C14.6001 38.889 13.4661 38.6865 12.2713 38.16C10.7324 37.4918 9.31488 36.1755 8.58589 34.7176C7.67465 32.9153 7.41141 30.6878 7.8164 28.2781C8.3834 24.9167 10.2666 21.3122 13.0408 18.214C13.3243 17.89 13.5876 17.6268 13.6078 17.6268C13.6281 17.6268 14.1748 18.1533 14.8228 18.8012ZM86.8714 17.7078C86.0817 17.8293 85.0894 18.1938 84.4415 18.619L84.239 18.7607V18.3355C84.239 18.0925 84.1985 17.89 84.158 17.8293C84.0972 17.7685 83.6315 17.7483 82.4367 17.7483C80.9382 17.7483 80.7762 17.7483 80.6952 17.8698C80.594 17.971 80.594 18.4772 80.594 23.7422C80.594 29.2299 80.594 29.4931 80.7155 29.5944C80.8167 29.6956 81.0395 29.6956 82.4975 29.6956C83.7935 29.6956 84.1782 29.6754 84.239 29.6146C84.2795 29.5539 84.32 28.3591 84.32 25.9089C84.3402 22.507 84.3402 22.264 84.4617 22.0412C84.7047 21.5552 85.13 21.3527 86.3652 21.1502C86.8309 21.0692 87.2967 20.9882 87.3979 20.968L87.5802 20.9275V19.348C87.5802 17.7685 87.5599 17.5863 87.3574 17.6268C87.2764 17.647 87.0739 17.6673 86.8714 17.7078ZM88.5319 17.8495C88.4914 17.9103 88.4712 18.0115 88.4914 18.1128C88.5117 18.1938 89.0584 19.9757 89.7064 22.0412C92.2984 30.3841 92.1566 29.8981 91.9743 30.2221C91.8124 30.5461 91.5289 30.6068 90.5164 30.6068C89.8886 30.6068 89.5646 30.6271 89.5241 30.6878C89.4634 30.7486 89.4431 31.1536 89.4431 32.1458C89.4431 33.1381 89.4634 33.5431 89.5241 33.6038C89.6254 33.7051 92.1971 33.7051 92.8653 33.6241C93.9791 33.4621 94.8903 32.6723 95.4168 31.4168C95.5383 31.1536 96.5711 28.0149 97.7253 24.4509C99.487 19.0645 99.8313 17.9508 99.7503 17.8698C99.6895 17.7888 99.3858 17.7685 97.786 17.7685H95.9028L95.8421 18.052C95.8016 18.214 95.4168 19.8947 94.9713 21.8185C94.5258 23.7422 94.1613 25.3419 94.1208 25.3622C94.1006 25.3824 93.6753 23.6814 93.2096 21.5957L92.3389 17.7685H90.4556C88.8964 17.7685 88.5926 17.7685 88.5319 17.8495ZM62.673 20.3807C63.2805 20.6642 63.6855 21.211 63.807 21.8792L63.8475 22.1222H61.6807H59.514L59.5545 21.9197C59.6355 21.5552 59.9798 20.968 60.2633 20.725C60.7492 20.2997 61.1745 20.158 61.8427 20.1985C62.1667 20.2187 62.4097 20.2795 62.673 20.3807ZM107.364 20.482C107.931 20.7857 108.356 21.4135 108.559 22.264C108.701 22.8917 108.701 24.3902 108.539 25.0179C108.397 25.5647 108.113 26.1317 107.81 26.5164C107.324 27.1036 106.372 27.2656 105.602 26.8809C104.711 26.4354 104.286 25.4432 104.286 23.7827C104.286 22.2437 104.691 21.1502 105.44 20.6035C106.028 20.1985 106.736 20.158 107.364 20.482ZM18.7918 23.7624C17.1313 25.3217 15.0051 26.7189 13.2433 27.4276C12.8788 27.5694 12.5548 27.6909 12.5346 27.6909C12.5143 27.6909 12.5953 27.4681 12.6966 27.1846C13.4661 25.0584 14.8026 22.8917 16.4023 21.1705L16.787 20.7655L18.0628 22.021L19.3385 23.2764L18.7918 23.7624ZM21.3432 25.3419L22.5785 26.5772L22.1937 26.9416C20.1687 28.8451 17.0503 30.5664 14.8431 31.0321C14.2963 31.1536 13.0813 31.2751 12.4941 31.2751H12.1093V30.3436C12.1093 29.8374 12.1296 29.2906 12.1498 29.1691L12.1903 28.9261L12.9801 28.6629C14.9848 28.0149 17.5363 26.4151 19.4195 24.6332C19.7233 24.3497 20.0068 24.1067 20.0472 24.1067C20.0877 24.1067 20.675 24.6534 21.3432 25.3419Z" fill="#1D1D1B"/>
</svg>
