<svg width="33" height="33" viewBox="0 0 33 33" fill="none" xmlns="http://www.w3.org/2000/svg">
<path d="M16.1563 1.15485L16.9363 8.66882C17.3038 12.2091 20.102 15.0073 23.6423 15.3748L31.1563 16.1548L23.6423 16.9349C20.102 17.3024 17.3038 20.1006 16.9363 23.6409L16.1563 31.1548L15.3762 23.6409C15.0087 20.1006 12.2105 17.3024 8.67022 16.9349L1.15625 16.1548L8.67022 15.3748C12.2105 15.0073 15.0087 12.2091 15.3762 8.66881L16.1563 1.15485Z" fill="#A36FFE"/>
<path d="M16.1563 1.15485L16.9363 8.66882C17.3038 12.2091 20.102 15.0073 23.6423 15.3748L31.1563 16.1548L23.6423 16.9349C20.102 17.3024 17.3038 20.1006 16.9363 23.6409L16.1563 31.1548L15.3762 23.6409C15.0087 20.1006 12.2105 17.3024 8.67022 16.9349L1.15625 16.1548L8.67022 15.3748C12.2105 15.0073 15.0087 12.2091 15.3762 8.66881L16.1563 1.15485Z" stroke="#A36FFE" stroke-width="2.3097" stroke-linejoin="round"/>
</svg>
