<svg width="159" height="24" viewBox="0 0 159 24" fill="none" xmlns="http://www.w3.org/2000/svg">
<g clip-path="url(#clip0_8758_23621)">
<path d="M23.9739 0V7.99129H15.9826V23.9739H7.99129V7.99129H0V0H23.9739Z" fill="#0A9E01"/>
<path d="M47.9474 0H31.9648V7.99129H47.9474V0Z" fill="#0A9E01"/>
<path d="M47.9465 15.9825V23.9738H23.9727V7.99121H31.9639V15.9825H47.9465Z" fill="#0A9E01"/>
<path d="M63.0528 5.59351H52.0781V8.76338H55.7541V18.6992H59.3768V8.76338H63.0528V5.59351Z" fill="#0A9E01"/>
<path d="M67.1814 8.65698C64.5976 8.65698 62.6797 10.3884 62.6797 13.798C62.6797 16.8081 64.3046 18.9125 67.2614 18.9125C68.8063 18.9125 70.0583 18.5129 71.257 17.7937L69.9784 15.636C68.9928 16.1422 68.3002 16.3286 67.4212 16.3286C66.5155 16.3286 65.8762 15.8491 65.743 14.757H71.5234C71.55 14.5972 71.55 14.3841 71.55 14.0911C71.5767 10.4417 69.8985 8.65698 67.1814 8.65698ZM65.7963 12.6526C65.9028 11.667 66.329 11.1609 67.1015 11.1609C68.0871 11.1609 68.4334 11.667 68.5932 12.6526H65.7963Z" fill="#0A9E01"/>
<path d="M77.9727 16.1688C77.067 16.1688 76.5875 15.3697 76.5875 13.798C76.5875 12.2531 77.0137 11.374 77.8928 11.374C78.612 11.374 78.9316 11.7736 79.4111 12.6526L81.7286 10.8945C80.8762 9.50939 79.8107 8.65698 77.946 8.65698C74.8028 8.65698 73.2578 10.7347 73.2578 13.7448C73.2578 17.0478 74.9893 18.8858 77.8661 18.8858C79.5976 18.8858 80.6631 18.2199 81.8085 16.5417L79.6775 14.8635C79.0382 15.8225 78.612 16.1688 77.9727 16.1688Z" fill="#0A9E01"/>
<path d="M89.5868 8.65687C88.4148 8.65687 87.7222 9.05644 87.1095 9.50927V5.06079L83.7266 6.41931V18.7259H87.1095V13.1054C87.1095 11.88 87.5357 11.5337 88.255 11.5337C88.9475 11.5337 89.3737 11.88 89.3737 13.132V18.7259H92.7567V12.7058C92.7567 10.1219 91.7179 8.65687 89.5868 8.65687Z" fill="#0A9E01"/>
<path d="M100.879 15.7424C99.3079 15.7424 98.6686 14.1441 98.6686 12.1463C98.6686 10.0686 99.3345 8.55025 100.853 8.55025C102.052 8.55025 102.504 9.32274 102.957 10.5481L106.26 9.24283C105.355 6.76553 104.076 5.38037 100.853 5.38037C97.3367 5.38037 94.8594 7.93758 94.8594 12.1463C94.8594 16.0354 96.9371 18.9123 100.826 18.9123C103.943 18.9123 105.408 17.2341 106.287 15.5293L103.224 13.9044C102.504 15.1297 102.025 15.7424 100.879 15.7424Z" fill="black"/>
<path d="M111.719 9.5893V8.87008H108.336V18.6994H111.719V13.3452C111.719 12.1465 112.225 11.7469 113.051 11.7469C113.717 11.7469 114.196 12.0932 114.622 12.5727L115.422 9.08318C115.022 8.84345 114.542 8.65698 113.823 8.65698C112.944 8.65698 112.278 9.02991 111.719 9.5893Z" fill="black"/>
<path d="M122.644 14.4907C122.644 15.716 122.218 16.0623 121.525 16.0623C120.833 16.0623 120.406 15.716 120.406 14.464V8.87012H117.023V14.8902C117.023 17.4741 118.062 18.9125 120.22 18.9125C121.365 18.9125 122.085 18.5129 122.671 18.0601V18.726H126.054V8.89676H122.671L122.644 14.4907Z" fill="black"/>
<path d="M134.333 8.65698C133.161 8.65698 132.468 9.05655 131.856 9.50939V8.84345H128.473V18.6727H131.856V13.0522C131.856 11.8269 132.282 11.4806 133.001 11.4806C133.694 11.4806 134.12 11.8269 134.12 13.0788V18.6727H137.503V12.6526C137.503 10.1221 136.491 8.65698 134.333 8.65698Z" fill="black"/>
<path d="M144.218 16.1688C143.312 16.1688 142.833 15.3697 142.833 13.798C142.833 12.2531 143.259 11.374 144.112 11.374C144.831 11.374 145.15 11.7736 145.63 12.6526L147.947 10.8945C147.095 9.50939 146.029 8.65698 144.165 8.65698C141.022 8.65698 139.477 10.7347 139.477 13.7448C139.477 17.0478 141.208 18.8858 144.085 18.8858C145.816 18.8858 146.882 18.2199 148.027 16.5417L145.896 14.8635C145.31 15.8225 144.857 16.1688 144.218 16.1688Z" fill="black"/>
<path d="M155.829 8.65687C154.657 8.65687 153.964 9.05644 153.352 9.50927V5.06079L149.969 6.41931V18.7259H153.352V13.1054C153.352 11.88 153.778 11.5337 154.497 11.5337C155.19 11.5337 155.616 11.88 155.616 13.132V18.7259H158.999V12.7058C159.026 10.1219 157.987 8.65687 155.829 8.65687Z" fill="black"/>
</g>
<defs>
<clipPath id="clip0_8758_23621">
<rect width="159" height="23.9739" fill="white"/>
</clipPath>
</defs>
</svg>
