<svg width="26" height="21" viewBox="0 0 26 21" fill="none" xmlns="http://www.w3.org/2000/svg">
<path d="M24.3841 1.17737C23.2174 1.74904 22.0741 1.98121 20.8841 2.33237C19.5763 0.856539 17.6373 0.774872 15.7741 1.47254C13.9109 2.17021 12.6906 3.87587 12.7174 5.83237V6.99904C8.93162 7.09587 5.55995 5.37154 3.38411 2.33237C3.38411 2.33237 -1.49489 11.0042 8.05078 15.1657C5.86678 16.6205 3.68861 17.6017 1.05078 17.499C4.91011 19.6025 9.11595 20.3259 12.7571 19.2689C16.9338 18.0555 20.3661 14.9254 21.6833 10.2365C22.0762 8.81049 22.2713 7.33721 22.2631 5.85804C22.2608 5.56754 24.0248 2.62404 24.3841 1.17621V1.17737Z" stroke="#77E6FF" stroke-width="2.1" stroke-linecap="round" stroke-linejoin="round"/>
</svg>
